<svg width="145.705" height="146.379" xmlns="http://www.w3.org/2000/svg">
    <defs>
        <filter id="a" x="-.034" y="-.034" width="1.068" height="1.068" color-interpolation-filters="sRGB">
            <feGaussianBlur stdDeviation=".078"/>
        </filter>
        <filter id="c" x="-.034" y="-.034" width="1.068" height="1.068" color-interpolation-filters="sRGB">
            <feGaussianBlur stdDeviation=".078"/>
        </filter>
        <filter id="b" x="-.034" y="-.034" width="1.068" height="1.068" color-interpolation-filters="sRGB">
            <feGaussianBlur stdDeviation=".078"/>
        </filter>
    </defs>
    <path d="M84.554 87.879c.217-.088.573-.088.79 0 .216.087.039.159-.395.159-.435 0-.612-.072-.395-.16zm-9.712-.542c0-.066.25-.315.552-.553.502-.393.513-.381.12.12-.412.526-.672.693-.672.432zm-2.764-8.627a2.61 2.61 0 0 1 1.106 0c.304.08.055.145-.553.145-.608 0-.857-.065-.553-.145zm-3.109-1.44l-.602-.71.71.602c.669.565.855.819.603.819-.06 0-.38-.32-.711-.71zm-1.367-3.263c.016-.369.09-.443.191-.191.092.228.08.5-.025.605-.105.105-.179-.08-.166-.414zm8.164-3.527L75 69.61l.869.767c.811.716 1.013.971.765.971-.056 0-.448-.39-.868-.868zm-2.246-1.243c.227-.09.5-.08.605.025.105.105-.082.18-.415.166-.367-.015-.443-.09-.19-.19zm1.954-21.696c0-.065.249-.314.552-.553.501-.392.513-.381.12.12-.413.526-.672.694-.672.433zm-7.835-3.829c.007-.52.078-.695.158-.389.08.309.075.734-.012.948-.087.214-.152-.037-.146-.558zm-2.944-7.974c-.393-.501-.382-.512.119-.12.526.413.693.672.433.672-.065 0-.314-.249-.552-.552zm5.094.433c0-.066.248-.314.553-.552.5-.393.511-.382.118.119-.412.526-.671.693-.671.433zm1.288-2.276c.015-.368.09-.442.19-.19.092.227.08.5-.024.605-.105.105-.18-.082-.166-.415zm-4.052-4.455c.304-.08.801-.08 1.105 0 .305.08.056.144-.553.144-.607 0-.856-.064-.552-.144z"
          fill="#fbee96"/>
    <path d="M57.784 103.485c-1.659-1.129-2.277-2.187-2.304-3.938-.044-2.887 2-4.949 4.907-4.949 3.495 0 5.73 3.842 4.11 7.065-1.22 2.43-4.508 3.322-6.713 1.822zm7.072-13.37c-1.016-.502-1.7-1.584-1.7-2.69 0-1.508 1.553-3.127 3-3.127.894 0 2.112.776 2.551 1.625.567 1.096.565 1.778-.007 2.875l-.453.869 1.798.045c1.685.043 1.638.06-.73.28-1.39.13-2.74.32-3 .423-.26.102-.918-.032-1.459-.3zm5.324-12.133c-3.2-1.95-3.017-6.477.332-8.163 1.857-.935 3.585-.723 5.126.63 3.334 2.927 1.364 8.166-3.07 8.162-.797 0-1.784-.26-2.388-.628zm-1.063-30.874c-.393-.501-.382-.512.118-.12.305.239.554.488.554.553 0 .26-.26.093-.672-.433zm6.632-6.949c-.393-.5-.382-.511.12-.119.525.413.693.672.433.672-.066 0-.314-.248-.553-.553zm-9.434-3.46c-1.718-.628-2.796-2.9-2.212-4.667 1.055-3.198 6.035-3.17 6.921.037.787 2.85-2.022 5.612-4.71 4.63zm13.522-4.414c.227-.092.5-.08.605.025.105.105-.081.179-.415.166-.367-.015-.442-.09-.19-.191z"
          fill="#fcf27a"/>
    <path d="M56.943 110.531c-5.23-1.281-8.819-6.663-7.98-11.966.388-2.46.971-3.464 4.546-7.838l3.393-4.15 1.942.87c1.069.48 2.496 1.05 3.171 1.27.675.217 1.725.733 2.333 1.146 1.168.793 1.978.928 2.856.479.292-.15 1.989-.364 3.769-.476l3.237-.202v.954c0 .645.35 1.334 1.082 2.133.996 1.088 1.215 1.18 2.817 1.18 1.413 0 1.895-.147 2.59-.79 1.208-1.114 1.79-2.637 1.533-4.008l-.212-1.132 3.28.154c1.904.09 3.757.358 4.416.639 1.274.543 5.455 5.373 6.205 7.168 2.197 5.25-.057 11.139-5.287 13.818l-1.738.89-15.475.054c-8.512.03-15.927-.058-16.478-.193zm5.82-6.965c1.677-1.023 2.342-2.381 2.206-4.507-.1-1.556-.27-1.977-1.18-2.915-1.84-1.899-3.99-2.169-6.257-.784-1.101.67-2.254 2.745-2.265 4.077-.01 1.2 1.151 3.265 2.277 4.048 1.338.93 3.766.967 5.22.08zm23.305-1.41c1.448-1.446.582-3.646-1.435-3.646-2.068 0-2.984 2.504-1.379 3.768 1.093.858 1.867.826 2.814-.122z"
          fill="#fdda00"/>
    <path d="M51.598 107.59l-.602-.71.71.602c.669.565.855.82.603.82-.06 0-.38-.32-.71-.712zm42.036.08c.315-.348.643-.632.73-.632.087 0-.1.284-.414.632-.314.347-.642.63-.73.63-.086 0 .1-.283.414-.63zm-10.38-5.392c-1.605-1.263-.69-3.768 1.379-3.768 2.017 0 2.883 2.2 1.435 3.646-.947.947-1.721.981-2.814.122zm-34.576-1.24c0-.435.07-.613.159-.396.087.218.087.573 0 .79-.088.217-.16.039-.16-.395zm48.007 0c0-.435.071-.613.16-.396.086.218.086.573 0 .79-.089.217-.16.039-.16-.395zm-48.007-1.896c0-.435.07-.612.159-.395.087.217.087.573 0 .79-.088.217-.16.04-.16-.395zm48.007 0c0-.435.071-.612.16-.395.086.217.086.573 0 .79-.089.217-.16.04-.16-.395zm-20.132-5.343c-.361-.155-1.051-.751-1.534-1.324-.773-.92-.86-1.239-.737-2.717.163-1.977 1.018-3.077 2.802-3.612 1.499-.449 2.527-.183 3.876 1 1.846 1.622 1.755 4.136-.215 5.953-.886.817-3.071 1.182-4.192.7zm14.356-4.37c-.393-.5-.382-.51.12-.118.304.238.552.487.552.552 0 .26-.259.093-.672-.433zM71.426 48.293c-1.945-.454-3.532-2.518-3.532-4.595 0-4.33 5.316-6.392 8.152-3.162 1.69 1.925 1.706 4.412.04 6.31-.514.585-1.324 1.158-1.8 1.27-.476.114-1.079.255-1.339.314s-.945-.002-1.52-.137zm6.89-11.685c-.39-.392-.631-1.054-.631-1.738 0-1.452.916-2.368 2.368-2.368 1.428 0 2.369.919 2.369 2.313 0 2.081-2.657 3.24-4.106 1.793z"
          fill="#f0b623"/>
    <path d="M61.651 63.865l-.074-10.167-1.343-.097-1.342-.098v-4.106h27.794v4.106l-1.338.097-1.338.097-.09 10.168-.09 10.168.007-10.265.006-10.265 1.342-.097 1.343-.096v-3.754H59.05v3.79h1.273c.732 0 1.338.168 1.426.397.084.219.113 4.874.064 10.344l-.088 9.946zm7.568-9.176a144.671 144.671 0 0 1 6.948 0c1.964.055.444.101-3.378.101-3.821 0-5.428-.045-3.57-.1z"
          fill="#979797"/>
    <path d="M64.95 115.013c4.2-.05 11.164-.05 15.476 0 4.312.05.875.09-7.637.09s-12.04-.04-7.84-.09zm-16.363-4.422c-.392-.5-.381-.512.12-.119.303.239.552.487.552.553 0 .26-.26.092-.672-.433zm17.512.316c3.79-.05 9.902-.05 13.58 0 3.68.05.58.092-6.89.092s-10.48-.042-6.69-.092zm30.22.117c0-.065.25-.313.552-.552.502-.393.513-.382.12.119-.413.526-.672.694-.672.433z"
          fill="#565656"/>
    <path d="M54.869 114.32c-6.437-2.058-10.76-8.474-10.243-15.208.362-4.72.417-4.808 11.257-17.978l6.01-7.303V53.345H59.05v-3.79h27.478v3.79h-2.842v20.447l7.607 9.28c4.184 5.104 7.88 9.809 8.213 10.455 4.074 7.906-.3 18.132-8.902 20.809-1.783.555-3.078.597-17.923.582-14.621-.016-16.157-.068-17.813-.597zm32.7-3.5c2.667-.385 4.312-1.208 6.198-3.1 2.276-2.283 2.99-4.057 3.01-7.473.02-3.496-.453-4.638-3.399-8.212l-7.933-9.633-5.851-7.106-.008-10.343-.007-10.344H66l-.01 10.344-.011 10.343-7.927 9.634c-4.36 5.298-8.228 10.272-8.596 11.054-.53 1.124-.668 2.014-.664 4.263.006 2.627.088 2.995 1.084 4.841 1.733 3.215 4.487 5.222 7.845 5.714 2.562.376 27.272.392 29.848.019z"
          fill="#0070ff"/>
    <path style="line-height:1.25;-inkscape-font-specification:Sawasdee"
          d="M128.507 31.984l-6.586 4.847c-5.669-7.621-12.803-13.626-21.4-18.015-8.535-4.451-17.771-6.677-27.71-6.677-11.096 0-21.337 2.743-30.727 8.231-9.329 5.486-16.706 12.955-22.132 22.405-5.426 9.39-8.139 19.662-8.139 30.82 0 8.291 1.586 16.218 4.755 23.778 3.232 7.56 7.56 14.083 12.987 19.57 5.426 5.487 11.919 9.877 19.48 13.17 7.56 3.23 15.486 4.846 23.778 4.846 10.607 0 20.484-2.53 29.629-7.591 9.145-5.121 16.492-12.071 22.04-20.85 5.549-8.78 8.657-18.413 9.329-28.898h-28.408l-7.02-8.141h43.75v4.115c0 9.45-1.83 18.474-5.487 27.07-3.659 8.536-8.597 15.914-14.816 22.132-6.158 6.219-13.535 11.157-22.132 14.815-8.535 3.658-17.497 5.488-26.885 5.488-9.39 0-18.353-1.83-26.888-5.488-8.535-3.658-15.882-8.596-22.04-14.815-6.157-6.218-11.065-13.596-14.724-22.131-3.658-8.597-5.487-17.62-5.487-27.07 0-9.451 1.83-18.474 5.487-27.07 3.659-8.597 8.566-16.004 14.724-22.223 6.158-6.22 13.505-11.157 22.04-14.814C54.46 5.828 63.423 4 72.813 4c11.156 0 21.642 2.5 31.458 7.499 9.816 5 17.894 11.827 24.236 20.485z"
          fill="#1b9f00" stroke-width="3.25" stroke="green" stroke-miterlimit="6"/>
    <ellipse style="mix-blend-mode:normal" cx="65.677" cy="18.506" rx="4.881" ry="4.888"
             transform="matrix(.7611 0 0 .76189 17.565 19.065)" fill="#fff781" stroke="#000" stroke-width=".289"
             stroke-linecap="square" stroke-opacity=".391" filter="url(#a)"/>
    <ellipse style="mix-blend-mode:normal" cx="65.677" cy="18.506" rx="4.881" ry="4.888"
             transform="matrix(.62775 0 0 .6284 24.939 75.79)" fill="#fff781" stroke="#000" stroke-width=".289"
             stroke-linecap="square" stroke-opacity=".391" filter="url(#b)"/>
    <ellipse style="mix-blend-mode:normal" cx="65.677" cy="18.506" rx="4.881" ry="4.888"
             transform="matrix(.98724 0 0 .98827 7.958 55.897)" fill="#fff781" stroke="#000" stroke-width=".289"
             stroke-linecap="square" stroke-opacity=".391" filter="url(#c)"/>
    <ellipse cx="72.557" cy="43.642" rx="4.586" ry="4.549" fill="#ffbc00" stroke="#000" stroke-width=".22"
             stroke-linecap="square" stroke-opacity=".391"/>
    <ellipse cx="80.034" cy="34.854" rx="2.404" ry="2.395" fill="#c9af00" stroke="#000" stroke-width=".22"
             stroke-linecap="square" stroke-opacity=".391"/>
</svg>
